<svg xmlns="http://www.w3.org/2000/svg" viewBox="0 0 32 32">
  <defs>
    <linearGradient id="novaGradient" x1="0%" y1="0%" x2="100%" y2="100%">
      <stop offset="0%" style="stop-color:#8B5CF6"/>
      <stop offset="50%" style="stop-color:#6366F1"/>
      <stop offset="100%" style="stop-color:#4F46E5"/>
    </linearGradient>
    <linearGradient id="flameGradient" x1="0%" y1="0%" x2="0%" y2="100%">
      <stop offset="0%" style="stop-color:#F59E0B"/>
      <stop offset="100%" style="stop-color:#EF4444"/>
    </linearGradient>
  </defs>
  <!-- Rocket body -->
  <path d="M16 2 C16 2 22 8 22 16 C22 22 18 26 16 28 C14 26 10 22 10 16 C10 8 16 2 16 2 Z" fill="url(#novaGradient)"/>
  <!-- Window -->
  <circle cx="16" cy="12" r="3" fill="#1E1B4B" opacity="0.8"/>
  <circle cx="16" cy="12" r="2" fill="#C4B5FD" opacity="0.4"/>
  <!-- Left fin -->
  <path d="M10 20 L6 26 L10 24 Z" fill="url(#novaGradient)" opacity="0.8"/>
  <!-- Right fin -->
  <path d="M22 20 L26 26 L22 24 Z" fill="url(#novaGradient)" opacity="0.8"/>
  <!-- Flame -->
  <path d="M14 28 Q16 32 18 28 Q17 30 16 31 Q15 30 14 28 Z" fill="url(#flameGradient)"/>
</svg>